<?xml version="1.0" encoding="UTF-8" standalone="no"?>
<svg
   enable-background="new 0 0 24 24"
   height="24px"
   viewBox="0 0 24 24"
   width="24px"
   fill="#000000"
   version="1.1"
   id="svg143"
   sodipodi:docname="pedal_bike_black_24dp.svg"
   inkscape:version="1.2.2 (732a01da63, 2022-12-09)"
   xmlns:inkscape="http://www.inkscape.org/namespaces/inkscape"
   xmlns:sodipodi="http://sodipodi.sourceforge.net/DTD/sodipodi-0.dtd"
   xmlns="http://www.w3.org/2000/svg"
   xmlns:svg="http://www.w3.org/2000/svg">
  <defs
     id="defs147" />
  <sodipodi:namedview
     id="namedview145"
     pagecolor="#ffffff"
     bordercolor="#000000"
     borderopacity="0.25"
     inkscape:showpageshadow="2"
     inkscape:pageopacity="0.0"
     inkscape:pagecheckerboard="0"
     inkscape:deskcolor="#d1d1d1"
     showgrid="false"
     inkscape:zoom="33.5"
     inkscape:cx="12.014925"
     inkscape:cy="12.014925"
     inkscape:window-width="1920"
     inkscape:window-height="991"
     inkscape:window-x="1701"
     inkscape:window-y="186"
     inkscape:window-maximized="1"
     inkscape:current-layer="svg143" />
  <g
     id="g137">
    <rect
       fill="none"
       height="24"
       width="24"
       id="rect135" />
  </g>
  <g
     id="g141"
     style="fill:#017a39;fill-opacity:1">
    <path
       d="M18.18,10l-1.7-4.68C16.19,4.53,15.44,4,14.6,4H12v2h2.6l1.46,4h-4.81l-0.36-1H12V7H7v2h1.75l1.82,5H9.9 c-0.44-2.23-2.31-3.88-4.65-3.99C2.45,9.87,0,12.2,0,15c0,2.8,2.2,5,5,5c2.46,0,4.45-1.69,4.9-4h4.2c0.44,2.23,2.31,3.88,4.65,3.99 c2.8,0.13,5.25-2.19,5.25-5c0-2.8-2.2-5-5-5H18.18z M7.82,16c-0.4,1.17-1.49,2-2.82,2c-1.68,0-3-1.32-3-3s1.32-3,3-3 c1.33,0,2.42,0.83,2.82,2H5v2H7.82z M14.1,14h-1.4l-0.73-2H15C14.56,12.58,14.24,13.25,14.1,14z M19,18c-1.68,0-3-1.32-3-3 c0-0.93,0.41-1.73,1.05-2.28l0.96,2.64l1.88-0.68l-0.97-2.67c0.03,0,0.06-0.01,0.09-0.01c1.68,0,3,1.32,3,3S20.68,18,19,18z"
       id="path139"
       style="fill:#017a39;fill-opacity:1" />
  </g>
</svg>
